<svg width="82" height="30" viewBox="0 0 82 30" fill="none" xmlns="http://www.w3.org/2000/svg">
<path fill-rule="evenodd" clip-rule="evenodd" d="M10.4945 1.30753C5.1633 7.56837 0.0516727 15.3324 0.000416143 21.1357C-0.0195469 23.3192 0.677542 25.2254 2.34958 26.6692C4.75594 28.7486 7.40725 29.4819 10.0456 29.4862C13.9012 29.4916 17.7298 27.9361 20.7275 26.7367C25.776 24.7177 81.5824 0.483105 81.5824 0.483105C82.1209 0.213334 82.02 -0.122799 81.3461 0.0449989C81.0742 0.112981 20.592 16.5037 20.592 16.5037C19.4464 16.8277 18.2626 16.9972 17.0721 17.0077C12.4239 17.0352 8.28779 14.4551 8.32124 9.01812C8.33419 6.89071 8.98541 4.32519 10.4945 1.30753Z" fill="black"/>
</svg>
